<svg width="168" height="39" viewBox="0 0 168 39" fill="none" xmlns="http://www.w3.org/2000/svg">
<path d="M34.6278 0H4.28461C1.91846 0 0 1.91722 0 4.28337V34.6266C0 36.9927 1.91846 38.9112 4.28461 38.9112H34.6278C36.994 38.9112 38.9124 36.9927 38.9124 34.6266V4.28337C38.9124 1.91722 36.994 0 34.6278 0ZM23.8351 29.7182C19.1164 30.4325 14.3878 31.0798 9.66052 31.7383C8.28895 31.9293 7.13564 31.2981 6.59991 30.1373C6.06914 28.9853 6.29732 27.5988 7.29933 26.8175C7.79414 26.4319 8.4576 26.1516 9.08014 26.0574C13.6971 25.3604 18.324 24.7341 22.9447 24.0595C25.0219 23.7569 26.0958 21.4156 24.9065 19.7204C24.5233 19.1747 23.8946 18.8014 23.4506 18.4133C25.5439 18.412 27.7848 20.178 28.4322 22.4635C29.3821 25.8205 27.2814 29.1961 23.8351 29.7182ZM30.0977 12.834C25.4559 13.5074 20.8117 14.1535 16.1687 14.8206C14.1373 15.1121 12.9977 17.064 13.7988 18.851C14.0939 19.5083 14.5528 19.9175 15.5808 20.4979C13.423 20.3206 11.7898 19.2863 10.8535 17.3294C9.83413 15.2014 10.0983 13.1428 11.543 11.2764C12.4384 10.1206 13.6463 9.40753 15.0935 9.19671C19.8369 8.50101 24.5816 7.82762 29.33 7.16912C30.9707 6.94218 32.3324 8.00372 32.5605 9.61339C32.785 11.1983 31.7421 12.5946 30.0977 12.834Z" fill="url(#paint0_linear_2004_26066)"/>
<path d="M45.1093 16.0064H51.0631C51.4326 18.3949 53.2494 19.7069 56.7478 19.7069C59.8766 19.7069 61.5582 18.7644 61.5582 17.218C61.5582 16.0064 60.8178 15.1656 58.3289 14.8965L53.8546 14.3918C48.2033 13.7866 45.7814 11.7342 45.7814 7.73109C45.7814 3.32371 50.1888 0.296585 56.2443 0.296585C62.2998 0.296585 66.438 2.71854 67.1102 8.13537H61.1564C60.7186 5.67994 58.8349 4.77093 56.1773 4.77093C53.6884 4.77093 52.1072 5.6787 52.1072 7.12591C52.1072 8.40448 52.8476 9.04314 56.0434 9.38045L60.5847 9.88518C65.4968 10.3899 67.8853 12.5762 67.8853 16.4454C67.8853 21.0537 63.3774 24.1825 56.6151 24.1825C49.8527 24.1825 45.5135 21.3563 45.1105 16.0076L45.1093 16.0064Z" fill="#2E4EA4"/>
<path d="M77.0013 5.64501H68.8934V0.597733H91.2986V5.64377H83.1908V23.8103H77.0013V5.64501Z" fill="#2E4EA4"/>
<path d="M94.4609 0.597733H113.132V5.20601H100.652V9.84901H111.82V14.4573H100.652V19.2007H113.435V23.809H94.4609V0.597733Z" fill="#2E4EA4"/>
<path d="M117.573 0.597733H128.237C135.671 0.597733 140.28 5.61029 140.28 12.204C140.28 18.7977 135.671 23.8103 128.237 23.8103H117.573V0.597733ZM127.396 19.135C131.904 19.135 134.09 16.0732 134.09 12.2052C134.09 8.67338 131.971 5.27546 127.396 5.27546H123.763V19.135H127.396Z" fill="#2E4EA4"/>
<path d="M142.938 12.3392C142.938 5.40939 148.22 0.261658 155.486 0.261658C162.752 0.261658 168 5.10556 168 12.1035C168 19.1015 162.752 24.1811 155.486 24.1811C148.22 24.1811 142.938 19.4041 142.938 12.3392ZM161.811 12.2375C161.811 7.8983 159.322 5.10556 155.486 5.10556C151.65 5.10556 149.161 7.93179 149.161 12.2375C149.161 16.5432 151.617 19.3694 155.486 19.3694C159.355 19.3694 161.811 16.5432 161.811 12.2375Z" fill="#2E4EA4"/>
<path d="M46 38.2768V28.815H49.3908C50.0856 28.815 50.6717 28.9359 51.1503 29.1764C51.629 29.4182 51.9916 29.7552 52.2395 30.1899C52.4874 30.6246 52.6107 31.1313 52.6107 31.7113C52.6107 32.2913 52.4825 32.7907 52.2261 33.2229C51.9697 33.6552 51.5985 33.9885 51.1113 34.2266C50.6241 34.4635 50.0355 34.5819 49.3456 34.5819H46.6533V33.5404H49.3518C49.817 33.5404 50.2053 33.4659 50.5142 33.3182C50.8231 33.1704 51.0563 32.958 51.2126 32.6832C51.3689 32.4085 51.4471 32.0837 51.4471 31.7113C51.4471 31.3389 51.3689 30.9957 51.2126 30.721C51.0563 30.4463 50.8219 30.2326 50.5105 30.08C50.1992 29.9273 49.8084 29.8516 49.3395 29.8516H47.1746V38.278H46V38.2768ZM51.4727 38.2768L49.1869 34.0227H50.5142L52.8378 38.2768H51.4727Z" fill="#5072A7"/>
<path d="M59.2288 38.2768V28.815H65.2106V29.8565H60.4034V32.9421H64.8675V33.9836H60.4034V37.2353H65.2363V38.2768H59.2288Z" fill="#5072A7"/>
<path d="M71.8347 38.2768V28.815H75.162C75.8568 28.815 76.4429 28.9395 76.9216 29.1898C77.4002 29.4401 77.7616 29.7833 78.0071 30.2216C78.2525 30.66 78.3758 31.1691 78.3758 31.7491C78.3758 32.3291 78.25 32.8346 77.9985 33.2766C77.747 33.7187 77.3807 34.0654 76.8996 34.3145C76.4185 34.5648 75.8312 34.6894 75.1376 34.6894H72.5783V33.6539H75.1181C75.5833 33.6539 75.9716 33.5746 76.283 33.4158C76.5943 33.2571 76.8275 33.0337 76.9851 32.7455C77.1413 32.4573 77.2195 32.1252 77.2195 31.7491C77.2195 31.373 77.1413 31.036 76.9851 30.7528C76.8288 30.4695 76.5931 30.2485 76.2805 30.0897C75.9667 29.931 75.5772 29.8516 75.112 29.8516H73.0106V38.278H71.8359L71.8347 38.2768Z" fill="#5072A7"/>
<path d="M88.5495 38.4282C87.8083 38.4282 87.1612 38.2817 86.6068 37.9899C86.0524 37.698 85.6226 37.2975 85.3174 36.7896C85.0121 36.2816 84.8607 35.7053 84.8607 35.0618V28.8138H86.0293V34.9666C86.0293 35.4245 86.1306 35.8311 86.3345 36.1888C86.5384 36.5466 86.8278 36.8274 87.2039 37.0301C87.5812 37.2328 88.0293 37.3354 88.5495 37.3354C89.0696 37.3354 89.5239 37.234 89.8987 37.0301C90.2736 36.8274 90.5617 36.5466 90.762 36.1888C90.9635 35.8311 91.0636 35.4232 91.0636 34.9666V28.8138H92.2382V35.0557C92.2382 35.7077 92.0856 36.2865 91.7816 36.792C91.4763 37.2975 91.0477 37.6968 90.4958 37.9886C89.9439 38.2805 89.2943 38.427 88.5495 38.427V38.4282Z" fill="#5072A7"/>
<path d="M98.6279 29.8565V28.815H105.867V29.8565H102.838V38.2768H101.67V29.8565H98.6279Z" fill="#5072A7"/>
<path d="M110.283 38.2768L113.749 28.815H115.089L118.555 38.2768H117.317L115.317 32.6124C115.19 32.2485 115.045 31.8163 114.882 31.3169C114.72 30.8175 114.517 30.1691 114.276 29.3742H114.561C114.32 30.174 114.117 30.826 113.952 31.3303C113.787 31.8346 113.643 32.262 113.52 32.6124L111.514 38.2768H110.282H110.283ZM112.055 35.6284V34.5929H116.785V35.6284H112.055Z" fill="#5072A7"/>
<path d="M122.972 29.8565V28.815H130.211V29.8565H127.182V38.2768H126.013V29.8565H122.972Z" fill="#5072A7"/>
<path d="M137.806 28.815V38.2768H136.632V28.815H137.806Z" fill="#5072A7"/>
<path d="M148.698 38.416C147.872 38.416 147.139 38.2133 146.498 37.8067C145.856 37.4001 145.352 36.8323 144.986 36.1021C144.62 35.3719 144.436 34.5221 144.436 33.5526C144.436 32.5831 144.62 31.7259 144.986 30.9933C145.352 30.2607 145.855 29.6917 146.498 29.2851C147.139 28.8785 147.872 28.6758 148.698 28.6758C149.523 28.6758 150.25 28.8785 150.888 29.2851C151.527 29.6917 152.03 30.2607 152.396 30.9933C152.763 31.7259 152.946 32.5782 152.946 33.5526C152.946 34.527 152.763 35.3719 152.396 36.1021C152.03 36.8323 151.527 37.4013 150.888 37.8067C150.249 38.2133 149.518 38.416 148.698 38.416ZM148.698 37.3305C149.266 37.3305 149.782 37.184 150.251 36.8921C150.719 36.6003 151.092 36.1742 151.372 35.6125C151.652 35.052 151.791 34.3646 151.791 33.5514C151.791 32.7382 151.652 32.0446 151.372 31.4817C151.092 30.9188 150.719 30.4915 150.251 30.1984C149.783 29.9066 149.266 29.76 148.698 29.76C148.13 29.76 147.606 29.9066 147.136 30.1984C146.666 30.4902 146.291 30.9176 146.012 31.4817C145.732 32.0458 145.593 32.7345 145.593 33.5514C145.593 34.3682 145.732 35.0508 146.012 35.6125C146.291 36.1729 146.666 36.6003 147.136 36.8921C147.606 37.184 148.126 37.3305 148.698 37.3305Z" fill="#5072A7"/>
<path d="M159.577 38.2768V28.815H160.942L164.816 34.9238C164.908 35.0679 165.023 35.2535 165.159 35.4831C165.294 35.7114 165.441 35.9641 165.597 36.2413C165.753 36.5185 165.906 36.803 166.054 37.0948L165.914 37.2218C165.894 36.9385 165.877 36.6382 165.863 36.3231C165.851 36.0081 165.842 35.7126 165.838 35.4379C165.833 35.1632 165.831 34.947 165.831 34.7907V28.815H167V38.2768H165.629L162.174 32.8407C162.056 32.6503 161.917 32.4244 161.758 32.1606C161.599 31.8981 161.416 31.5892 161.209 31.2339C161.001 30.8785 160.759 30.4658 160.484 29.9957L160.655 29.8248C160.676 30.3071 160.695 30.7442 160.709 31.1362C160.724 31.5281 160.735 31.8663 160.741 32.1521C160.747 32.4378 160.751 32.6637 160.751 32.8285V38.2768H159.576H159.577Z" fill="#5072A7"/>
<defs>
<linearGradient id="paint0_linear_2004_26066" x1="38.9124" y1="38.9112" x2="-5.35504" y2="31.3495" gradientUnits="userSpaceOnUse">
<stop stop-color="#2E4EA4"/>
<stop offset="1" stop-color="#5072A7"/>
</linearGradient>
</defs>
</svg>
