<svg width="39" height="39" viewBox="0 0 39 39" fill="none" xmlns="http://www.w3.org/2000/svg">
<path d="M34.6278 0H4.28461C1.91846 0 0 1.91722 0 4.28337V34.6266C0 36.9927 1.91846 38.9112 4.28461 38.9112H34.6278C36.994 38.9112 38.9124 36.9927 38.9124 34.6266V4.28337C38.9124 1.91722 36.994 0 34.6278 0ZM23.8351 29.7182C19.1164 30.4325 14.3878 31.0798 9.66052 31.7383C8.28895 31.9293 7.13564 31.2981 6.59991 30.1373C6.06914 28.9853 6.29732 27.5988 7.29933 26.8175C7.79414 26.4319 8.4576 26.1516 9.08014 26.0574C13.6971 25.3604 18.324 24.7341 22.9447 24.0595C25.0219 23.7569 26.0958 21.4156 24.9065 19.7204C24.5233 19.1747 23.8946 18.8014 23.4506 18.4133C25.5439 18.412 27.7848 20.178 28.4322 22.4635C29.3821 25.8205 27.2814 29.1961 23.8351 29.7182ZM30.0977 12.834C25.4559 13.5074 20.8117 14.1535 16.1687 14.8206C14.1373 15.1121 12.9977 17.064 13.7988 18.851C14.0939 19.5083 14.5528 19.9175 15.5808 20.4979C13.423 20.3206 11.7898 19.2863 10.8535 17.3294C9.83413 15.2014 10.0983 13.1428 11.543 11.2764C12.4384 10.1206 13.6463 9.40753 15.0935 9.19671C19.8369 8.50101 24.5816 7.82762 29.33 7.16912C30.9707 6.94218 32.3324 8.00372 32.5605 9.61339C32.785 11.1983 31.7421 12.5946 30.0977 12.834Z" fill="url(#paint0_linear_2004_26106)"/>
<defs>
<linearGradient id="paint0_linear_2004_26106" x1="38.9124" y1="38.9112" x2="-5.35504" y2="31.3495" gradientUnits="userSpaceOnUse">
<stop stop-color="#2E4EA4"/>
<stop offset="1" stop-color="#5072A7"/>
</linearGradient>
</defs>
</svg>
