<svg width="27" height="25" viewBox="0 0 27 25" fill="none" xmlns="http://www.w3.org/2000/svg">
<path d="M13.3333 2.17222C16.8958 2.17222 17.3177 2.18636 18.7187 2.2429C20.0208 2.29473 20.7239 2.49264 21.1927 2.65756C21.8125 2.87431 22.2604 3.13818 22.7239 3.55754C23.1927 3.98162 23.4791 4.38214 23.7187 4.94287C23.901 5.36695 24.1198 6.00777 24.177 7.18106C24.2395 8.45329 24.2552 8.83496 24.2552 12.0532C24.2552 15.2762 24.2395 15.6579 24.177 16.9254C24.1198 18.1034 23.901 18.7395 23.7187 19.1636C23.4791 19.7243 23.1875 20.1296 22.7239 20.5489C22.2552 20.973 21.8125 21.2322 21.1927 21.4489C20.7239 21.6139 20.0156 21.8118 18.7187 21.8636C17.3125 21.9201 16.8906 21.9343 13.3333 21.9343C9.77082 21.9343 9.34894 21.9201 7.94791 21.8636C6.64582 21.8118 5.9427 21.6139 5.47395 21.4489C4.85416 21.2322 4.40624 20.9683 3.9427 20.5489C3.47395 20.1249 3.18749 19.7243 2.94791 19.1636C2.76562 18.7395 2.54687 18.0987 2.48958 16.9254C2.42708 15.6532 2.41145 15.2715 2.41145 12.0532C2.41145 8.83025 2.42708 8.44858 2.48958 7.18106C2.54687 6.00306 2.76562 5.36695 2.94791 4.94287C3.18749 4.38214 3.47916 3.97691 3.9427 3.55754C4.41145 3.13347 4.85416 2.87431 5.47395 2.65756C5.9427 2.49264 6.65103 2.29473 7.94791 2.2429C9.34894 2.18636 9.77082 2.17222 13.3333 2.17222ZM13.3333 0C9.71353 0 9.2604 0.0141359 7.83853 0.0706797C6.42187 0.127223 5.44791 0.334551 4.60416 0.631405C3.72395 0.942396 2.97916 1.35234 2.23958 2.02615C1.49479 2.69525 1.04167 3.36907 0.697916 4.16068C0.369791 4.92873 0.140625 5.80516 0.0781249 7.08682C0.015625 8.3779 0 8.78784 0 12.0627C0 15.3375 0.015625 15.7474 0.0781249 17.0338C0.140625 18.3155 0.369791 19.1966 0.697916 19.9599C1.04167 20.7563 1.49479 21.4301 2.23958 22.0992C2.97916 22.7683 3.72395 23.1829 4.59895 23.4892C5.44791 23.7861 6.41666 23.9934 7.83332 24.0499C9.25519 24.1065 9.70832 24.1206 13.3281 24.1206C16.9479 24.1206 17.401 24.1065 18.8229 24.0499C20.2396 23.9934 21.2135 23.7861 22.0573 23.4892C22.9323 23.1829 23.677 22.7683 24.4166 22.0992C25.1562 21.4301 25.6145 20.7563 25.9531 19.9647C26.2812 19.1966 26.5104 18.3202 26.5729 17.0385C26.6354 15.7522 26.651 15.3422 26.651 12.0674C26.651 8.79256 26.6354 8.38261 26.5729 7.09624C26.5104 5.81458 26.2812 4.93344 25.9531 4.1701C25.625 3.36907 25.1718 2.69525 24.427 2.02615C23.6875 1.35705 22.9427 0.942396 22.0677 0.636117C21.2187 0.339263 20.25 0.131935 18.8333 0.0753917C17.4062 0.0141359 16.9531 0 13.3333 0Z" fill="#B3B3B3"/>
<path d="M13.3333 5.86621C9.55208 5.86621 6.48438 8.64157 6.48438 12.0625C6.48438 15.4834 9.55208 18.2587 13.3333 18.2587C17.1146 18.2587 20.1823 15.4834 20.1823 12.0625C20.1823 8.64157 17.1146 5.86621 13.3333 5.86621ZM13.3333 16.0818C10.8802 16.0818 8.89062 14.2818 8.89062 12.0625C8.89062 9.84312 10.8802 8.04315 13.3333 8.04315C15.7864 8.04315 17.776 9.84312 17.776 12.0625C17.776 14.2818 15.7864 16.0818 13.3333 16.0818Z" fill="#B3B3B3"/>
<path d="M22.0522 5.62138C22.0522 6.42242 21.3334 7.06796 20.4532 7.06796C19.5678 7.06796 18.8542 6.41771 18.8542 5.62138C18.8542 4.82035 19.573 4.1748 20.4532 4.1748C21.3334 4.1748 22.0522 4.82506 22.0522 5.62138Z" fill="#B3B3B3"/>
</svg>
