<svg width="27" height="25" viewBox="0 0 27 25" fill="none" xmlns="http://www.w3.org/2000/svg">
<path d="M24.6928 0H1.96876C0.880211 0 0 0.777477 0 1.73872V22.3819C0 23.3431 0.880211 24.1253 1.96876 24.1253H24.6928C25.7813 24.1253 26.6667 23.3431 26.6667 22.3866V1.73872C26.6667 0.777477 25.7813 0 24.6928 0ZM7.91148 20.5584H3.95314V9.04229H7.91148V20.5584ZM5.93231 7.4732C4.66147 7.4732 3.63543 6.54494 3.63543 5.39993C3.63543 4.25492 4.66147 3.32666 5.93231 3.32666C7.19794 3.32666 8.22398 4.25492 8.22398 5.39993C8.22398 6.54023 7.19794 7.4732 5.93231 7.4732ZM22.724 20.5584H18.7709V14.9605C18.7709 13.627 18.7448 11.9072 16.7136 11.9072C14.6563 11.9072 14.3438 13.3632 14.3438 14.8663V20.5584H10.3959V9.04229H14.1875V10.6161H14.2396C14.7657 9.71139 16.0573 8.75486 17.9792 8.75486C21.9844 8.75486 22.724 11.1391 22.724 14.2396V20.5584Z" fill="#B3B3B3"/>
</svg>
