<svg width="27" height="25" viewBox="0 0 27 25" fill="none" xmlns="http://www.w3.org/2000/svg">
<path d="M8.38905 21.8633C18.4494 21.8633 23.9536 14.3208 23.9536 7.78202C23.9536 7.56998 23.9484 7.35323 23.938 7.14119C25.0087 6.44065 25.9327 5.57294 26.6666 4.57882C25.6694 4.9802 24.6107 5.24235 23.5265 5.35629C24.6681 4.73725 25.5228 3.76476 25.9323 2.6191C24.8584 3.19489 23.6839 3.60105 22.4593 3.82019C21.6342 3.02702 20.5433 2.50184 19.3552 2.32586C18.1671 2.14988 16.948 2.3329 15.8864 2.84661C14.8247 3.36033 13.9798 4.17613 13.482 5.16789C12.9843 6.15965 12.8616 7.27212 13.1328 8.33332C10.9583 8.2346 8.83103 7.72356 6.88886 6.83333C4.94669 5.9431 3.23299 4.69355 1.85885 3.16569C1.16044 4.25508 0.946728 5.54418 1.26114 6.771C1.57556 7.99782 2.39451 9.0703 3.55156 9.77047C2.68292 9.74552 1.8333 9.53394 1.07292 9.1532V9.21446C1.07214 10.3577 1.509 11.4659 2.30923 12.3507C3.10946 13.2354 4.22369 13.8422 5.46249 14.0678C4.65783 14.267 3.81331 14.296 2.99427 14.1526C3.34383 15.1358 4.02396 15.9957 4.93974 16.6124C5.85551 17.229 6.96123 17.5716 8.10259 17.5924C6.16491 18.9694 3.7713 19.7163 1.30729 19.7128C0.870318 19.7121 0.433776 19.6879 0 19.6402C2.50317 21.0931 5.41503 21.8647 8.38905 21.8633Z" fill="#B3B3B3"/>
</svg>
